<?xml version="1.0" encoding="utf-8"?>
<!-- Generator: Adobe Illustrator 17.0.0, SVG Export Plug-In . SVG Version: 6.00 Build 0)  -->
<!DOCTYPE svg PUBLIC "-//W3C//DTD SVG 1.1//EN" "http://www.w3.org/Graphics/SVG/1.1/DTD/svg11.dtd">
<svg version="1.1" id="Layer_1" xmlns="http://www.w3.org/2000/svg" xmlns:xlink="http://www.w3.org/1999/xlink" x="0px" y="0px"
	 width="100px" height="100px" viewBox="0 0 100 100" enable-background="new 0 0 100 100" xml:space="preserve">
<g>
	<g>
		<path fill="#BAC7B5" d="M84.454,88.733H15.546c-1.583,0-2.872-1.288-2.872-2.872l0.033-0.251L25.28,39.115
			c0.073-1.519,1.331-2.732,2.868-2.732l10.654-0.052c-2.383-2.735-3.714-6.244-3.714-9.927c0-8.346,6.79-15.136,15.135-15.136
			c8.347,0,15.137,6.79,15.137,15.136c0,3.684-1.333,7.193-3.717,9.93l10.211,0.05c1.533,0,2.791,1.213,2.864,2.732l12.606,46.746
			C87.325,87.445,86.037,88.733,84.454,88.733z M14.595,85.968c0.053,0.477,0.46,0.851,0.952,0.851h68.908
			c0.492,0,0.899-0.374,0.952-0.851L72.809,39.255c0-0.528-0.43-0.957-0.957-0.957l-15.158-0.074l2.006-1.678
			c3.017-2.524,4.747-6.221,4.747-10.142c0-7.291-5.932-13.222-13.223-13.222c-7.29,0-13.221,5.931-13.221,13.222
			c0,3.921,1.728,7.616,4.742,10.139l2.006,1.678l-15.598,0.077c-0.533,0-0.962,0.429-0.962,0.957l-0.033,0.25L14.595,85.968z
			 M50.223,37.427c-6.078,0-11.023-4.945-11.023-11.023S44.146,15.38,50.223,15.38c6.08,0,11.024,4.945,11.024,11.023
			S56.303,37.427,50.223,37.427z M50.223,17.295c-5.022,0-9.108,4.087-9.108,9.109s4.086,9.109,9.108,9.109
			c5.023,0,9.11-4.087,9.11-9.109S55.247,17.295,50.223,17.295z"/>
	</g>
	<g>
		<path fill="#BAC7B5" d="M31.369,68.746h-1.907v-5.22l0.019-0.856l0.031-0.938c-0.317,0.318-0.537,0.523-0.66,0.623l-1.037,0.832
			l-0.919-1.146l2.905-2.313h1.568V68.746z"/>
		<path fill="#BAC7B5" d="M40.124,64.237c0,1.574-0.258,2.741-0.774,3.498c-0.516,0.757-1.312,1.135-2.385,1.135
			c-1.039,0-1.825-0.391-2.354-1.172c-0.527-0.781-0.793-1.935-0.793-3.46c0-1.593,0.258-2.765,0.772-3.52
			c0.514-0.754,1.305-1.132,2.374-1.132c1.041,0,1.828,0.394,2.359,1.184C39.857,61.56,40.124,62.715,40.124,64.237z M35.712,64.237
			c0,1.107,0.095,1.899,0.288,2.378c0.191,0.479,0.512,0.718,0.965,0.718c0.445,0,0.765-0.243,0.963-0.727s0.295-1.275,0.295-2.369
			c0-1.107-0.099-1.901-0.299-2.385c-0.198-0.482-0.518-0.725-0.959-0.725c-0.449,0-0.768,0.243-0.963,0.725
			C35.809,62.335,35.712,63.13,35.712,64.237z"/>
		<path fill="#BAC7B5" d="M47.335,64.237c0,1.574-0.258,2.741-0.774,3.498s-1.312,1.135-2.385,1.135
			c-1.039,0-1.825-0.391-2.354-1.172c-0.527-0.781-0.793-1.935-0.793-3.46c0-1.593,0.258-2.765,0.772-3.52
			c0.514-0.754,1.305-1.132,2.374-1.132c1.041,0,1.828,0.394,2.359,1.184C47.067,61.56,47.335,62.715,47.335,64.237z M42.923,64.237
			c0,1.107,0.095,1.899,0.288,2.378c0.191,0.479,0.512,0.718,0.965,0.718c0.445,0,0.765-0.243,0.963-0.727
			c0.198-0.484,0.295-1.275,0.295-2.369c0-1.107-0.099-1.901-0.299-2.385c-0.198-0.482-0.518-0.725-0.959-0.725
			c-0.449,0-0.768,0.243-0.963,0.725C43.02,62.335,42.923,63.13,42.923,64.237z"/>
		<path fill="#BAC7B5" d="M54.547,64.237c0,1.574-0.258,2.741-0.774,3.498s-1.312,1.135-2.385,1.135
			c-1.039,0-1.825-0.391-2.354-1.172c-0.527-0.781-0.793-1.935-0.793-3.46c0-1.593,0.258-2.765,0.772-3.52
			c0.514-0.754,1.305-1.132,2.374-1.132c1.041,0,1.828,0.394,2.359,1.184C54.28,61.56,54.547,62.715,54.547,64.237z M50.135,64.237
			c0,1.107,0.095,1.899,0.288,2.378c0.191,0.479,0.512,0.718,0.965,0.718c0.445,0,0.765-0.243,0.963-0.727s0.295-1.275,0.295-2.369
			c0-1.107-0.099-1.901-0.299-2.385c-0.198-0.482-0.518-0.725-0.959-0.725c-0.449,0-0.768,0.243-0.963,0.725
			C50.232,62.335,50.135,63.13,50.135,64.237z"/>
		<path fill="#BAC7B5" d="M61.073,64.996l0.821-1.051l1.931-2.098h2.122l-2.739,2.993l2.905,3.905h-2.172l-1.985-2.795L61.146,66.6
			v2.146h-1.881v-9.6h1.881v4.283l-0.097,1.567H61.073z"/>
		<path fill="#BAC7B5" d="M73.104,61.847v0.957l-1.081,0.277c0.198,0.31,0.297,0.654,0.297,1.038c0,0.74-0.258,1.318-0.774,1.729
			c-0.516,0.415-1.234,0.621-2.15,0.621l-0.34-0.019l-0.277-0.03c-0.194,0.148-0.29,0.312-0.29,0.494
			c0,0.271,0.344,0.408,1.036,0.408h1.172c0.757,0,1.333,0.161,1.731,0.486c0.396,0.325,0.594,0.802,0.594,1.432
			c0,0.806-0.337,1.432-1.01,1.875c-0.671,0.445-1.638,0.667-2.896,0.667c-0.963,0-1.698-0.168-2.206-0.503
			c-0.507-0.337-0.761-0.806-0.761-1.41c0-0.417,0.129-0.765,0.389-1.043c0.258-0.28,0.639-0.48,1.14-0.598
			c-0.193-0.082-0.361-0.217-0.505-0.406c-0.144-0.187-0.217-0.385-0.217-0.594c0-0.262,0.077-0.482,0.228-0.656
			c0.153-0.174,0.372-0.346,0.66-0.516c-0.361-0.155-0.649-0.406-0.86-0.753c-0.211-0.344-0.318-0.752-0.318-1.221
			c0-0.753,0.245-1.333,0.735-1.744c0.488-0.411,1.187-0.617,2.098-0.617c0.193,0,0.423,0.015,0.688,0.052
			c0.265,0.034,0.434,0.06,0.508,0.075H73.104z M67.779,69.72c0,0.26,0.125,0.464,0.374,0.611c0.249,0.148,0.596,0.222,1.045,0.222
			c0.675,0,1.202-0.093,1.585-0.279c0.383-0.185,0.574-0.437,0.574-0.759c0-0.258-0.114-0.437-0.34-0.537
			c-0.226-0.097-0.576-0.148-1.047-0.148h-0.976c-0.346,0-0.634,0.082-0.867,0.245C67.895,69.238,67.779,69.453,67.779,69.72z
			 M68.464,64.106c0,0.374,0.086,0.671,0.256,0.89c0.172,0.217,0.432,0.325,0.781,0.325c0.353,0,0.611-0.108,0.776-0.325
			c0.165-0.219,0.247-0.516,0.247-0.89c0-0.83-0.34-1.245-1.023-1.245C68.809,62.861,68.464,63.276,68.464,64.106z"/>
	</g>
</g>
</svg>
